<?xml version="1.0" encoding="UTF-8"?>
<mxfile>
  <diagram name="EventBookingSequenceDiagram">
    <mxGraphModel dx="1467" dy="781" grid="1" gridSize="10" guides="1" tooltips="1" connect="1" arrows="1" fold="1" page="1" pageScale="1" pageWidth="827" pageHeight="1169" math="0" shadow="0">
      <root>
        <mxCell id="0" />
        <mxCell id="1" parent="0" />

        <!-- Lifelines -->
        <mxCell id="Client" value="Client" style="swimlane;whiteSpace=wrap;html=1;" vertex="1" parent="1">
          <mxGeometry x="20" y="20" width="120" height="600" as="geometry" />
        </mxCell>
        <mxCell id="System" value="System" style="swimlane;whiteSpace=wrap;html=1;" vertex="1" parent="1">
          <mxGeometry x="160" y="20" width="120" height="600" as="geometry" />
        </mxCell>
        <mxCell id="PaymentGateway" value="Payment Gateway" style="swimlane;whiteSpace=wrap;html=1;" vertex="1" parent="1">
          <mxGeometry x="300" y="20" width="120" height="600" as="geometry" />
        </mxCell>
        <mxCell id="VenueAdmin" value="Venue Admin" style="swimlane;whiteSpace=wrap;html=1;" vertex="1" parent="1">
          <mxGeometry x="440" y="20" width="120" height="600" as="geometry" />
        </mxCell>
        <mxCell id="Contractors" value="Contractors" style="swimlane;whiteSpace=wrap;html=1;" vertex="1" parent="1">
          <mxGeometry x="580" y="20" width="120" height="600" as="geometry" />
        </mxCell>
        <mxCell id="Manager" value="Manager" style="swimlane;whiteSpace=wrap;html=1;" vertex="1" parent="1">
          <mxGeometry x="720" y="20" width="120" height="600" as="geometry" />
        </mxCell>

        <!-- Interactions -->
        <mxCell id="RequestAvailability" value="Client requests venue availability" style="edgeStyle=orthogonalEdgeStyle;html=1;" edge="1" parent="1" source="Client" target="System">
          <mxGeometry relative="1" as="geometry" />
        </mxCell>
        <mxCell id="CheckAvailability" value="System checks venue availability" style="edgeStyle=orthogonalEdgeStyle;html=1;" edge="1" parent="1" source="System" target="System">
          <mxGeometry relative="1" as="geometry" />
        </mxCell>
        <mxCell id="ProvideInfo" value="System provides availability & cost info" style="edgeStyle=orthogonalEdgeStyle;html=1;" edge="1" parent="1" source="System" target="Client">
          <mxGeometry relative="1" as="geometry" />
        </mxCell>
        <mxCell id="ConfirmVenue" value="Client confirms venue" style="edgeStyle=orthogonalEdgeStyle;html=1;" edge="1" parent="1" source="Client" target="System">
          <mxGeometry relative="1" as="geometry" />
        </mxCell>
        <mxCell id="PaymentRequest" value="System requests payment" style="edgeStyle=orthogonalEdgeStyle;html=1;" edge="1" parent="1" source="System" target="PaymentGateway">
          <mxGeometry relative="1" as="geometry" />
        </mxCell>
        <mxCell id="PaymentResponse" value="Payment gateway responds" style="edgeStyle=orthogonalEdgeStyle;html=1;" edge="1" parent="1" source="PaymentGateway" target="System">
          <mxGeometry relative="1" as="geometry" />
        </mxCell>
        <mxCell id="NotifySuccess" value="System notifies confirmation" style="edgeStyle=orthogonalEdgeStyle;html=1;" edge="1" parent="1" source="System" target="Client">
          <mxGeometry relative="1" as="geometry" />
        </mxCell>

        <!-- Task Organization -->
        <mxCell id="PrepareTasks" value="Venue admin prepares tasks" style="edgeStyle=orthogonalEdgeStyle;html=1;" edge="1" parent="1" source="VenueAdmin" target="Contractors">
          <mxGeometry relative="1" as="geometry" />
        </mxCell>
        <mxCell id="TaskCompletion" value="Contractors confirm tasks" style="edgeStyle=orthogonalEdgeStyle;html=1;" edge="1" parent="1" source="Contractors" target="VenueAdmin">
          <mxGeometry relative="1" as="geometry" />
        </mxCell>
        <mxCell id="AdminReport" value="Venue admin sends report" style="edgeStyle=orthogonalEdgeStyle;html=1;" edge="1" parent="1" source="VenueAdmin" target="System">
          <mxGeometry relative="1" as="geometry" />
        </mxCell>

        <!-- Feedback -->
        <mxCell id="RequestFeedback" value="System requests client feedback" style="edgeStyle=orthogonalEdgeStyle;html=1;" edge="1" parent="1" source="System" target="Client">
          <mxGeometry relative="1" as="geometry" />
        </mxCell>
        <mxCell id="SubmitFeedback" value="Client submits feedback" style="edgeStyle=orthogonalEdgeStyle;html=1;" edge="1" parent="1" source="Client" target="System">
          <mxGeometry relative="1" as="geometry" />
        </mxCell>
        <mxCell id="ManagerReport" value="System sends report to manager" style="edgeStyle=orthogonalEdgeStyle;html=1;" edge="1" parent="1" source="System" target="Manager">
          <mxGeometry relative="1" as="geometry" />
        </mxCell>
      </root>
    </mxGraphModel>
  </diagram>
</mxfile>
